# xmcd CD database file
#
# Track frame offsets:
#	150
#	20179
#	36301
#	52643
#	68998
#	86582
#	105953
#	121895
#	135137
#	151954
#	167836
#	190373
#	211173
#	228489
#	246670
#	265523
#	283158
#
# Disc length: 4012 seconds
#
# Revision: 0
# Processed by: cddbd v1.5.2PL0 Copyright (c) Steve Scherf et al.
# Submitted via: CDex 1.51
#
DISCID=e70faa11
DTITLE=Various Artist - NOW Country 2
DYEAR=2007
DGENRE=Country
TTITLE0=Keith Urban - I Told You So
TTITLE1=Sugarland - Want To
TTITLE2=Tim McGraw - My Little Girl
TTITLE3=Leann RImes - Probably Wouldn't Be This Way
TTITLE4=Rodney Atkins - Watching You
TTITLE5=Doc Walker - Trying To Get Back To You
TTITLE6=Big and Rich - Lost In This Moment
TTITLE7=George Strait - It Just Comes Natural
TTITLE8=Dierks Bentley - Long Trip Alone
TTITLE9=The Wreckers - Leave The Pieces
TTITLE10=Jim Cuddy - Pull Me Through
TTITLE11=George Canyon - I Want You To Live
TTITLE12=Eric Church - How 'Bout You
TTITLE13=Carolyn Dawn Johnson - Love and Negotiation
TTITLE14=Shane Yellowbird - Pickup Truck
TTITLE15=Aaron Pritchett - Done You Wrong
TTITLE16=Emerson Drive - The Devil Went Down To Georgia
EXTD=YEAR: 2007
EXTT0=
EXTT1=
EXTT2=
EXTT3=
EXTT4=
EXTT5=
EXTT6=
EXTT7=
EXTT8=
EXTT9=
EXTT10=
EXTT11=
EXTT12=
EXTT13=
EXTT14=
EXTT15=
EXTT16=
PLAYORDER=
